<?xml version="1.0" encoding="UTF-8"?>
<svg width="512" height="512" version="1.1" viewBox="0 0 512 512" xmlns="http://www.w3.org/2000/svg" xmlns:xlink="http://www.w3.org/1999/xlink"><defs><linearGradient id="b"><stop stop-color="#ffcc59" offset=".36061"/><stop stop-color="#f00" offset="1"/></linearGradient><linearGradient id="e" x1="56.499" x2="100.81" y1="74.624" y2="30.426" gradientTransform="matrix(.79516 0 0 .81475 -25.475 19.263)" gradientUnits="userSpaceOnUse"><stop stop-color="#0000d7" offset="0"/><stop stop-color="#000035" offset="1"/></linearGradient><linearGradient id="a" x1="39.905" x2="157.57" y1="1360.2" y2="1360.2" gradientTransform="matrix(3.0963 0 0 .32297 610.28 -.39402)" gradientUnits="userSpaceOnUse"><stop stop-color="#ffcc59" offset=".36061"/><stop stop-color="#f00" offset="1"/></linearGradient><linearGradient id="d" x1="129.31" x2="75.406" y1="128.51" y2="8.4384" gradientTransform="translate(0 .26458)" gradientUnits="userSpaceOnUse"><stop stop-color="#fff" offset="0"/><stop stop-color="#0f0" offset="1"/></linearGradient><filter id="m" x="-1.9276e-6" y="-8.7097e-7" width="1" height="1" color-interpolation-filters="sRGB"><feGaussianBlur stdDeviation="4.4269099e-05"/></filter><linearGradient id="c" x1="104.44" x2="128.73" y1="40.248" y2="98.19" gradientTransform="matrix(.99998 0 0 1 .00010889 0)" gradientUnits="userSpaceOnUse"><stop stop-color="#0f0" offset="0"/><stop stop-color="#fff" offset="1"/></linearGradient><linearGradient id="l" x1="25.123" x2="148.04" y1="178.73" y2="301.41" gradientTransform="matrix(3.7795 0 0 3.7795 -70.953 -651.53)" gradientUnits="userSpaceOnUse"><stop offset="0"/><stop stop-color="#b2b0d3" offset="1"/></linearGradient><linearGradient id="k" x1="16.012" x2="71.824" y1="97.965" y2="97.696" gradientTransform="matrix(5.1829 0 0 8.6512 57.434 -388.25)" gradientUnits="userSpaceOnUse" xlink:href="#b"/><linearGradient id="j" x1="39.905" x2="157.57" y1="1360.2" y2="1360.2" gradientTransform="matrix(3.0962 0 0 .32297 .11236 -104.21)" gradientUnits="userSpaceOnUse" xlink:href="#a"/><linearGradient id="i" x1="16.012" x2="71.824" y1="97.965" y2="97.696" gradientTransform="matrix(5.1829 0 0 8.6512 57.434 -492.46)" gradientUnits="userSpaceOnUse" xlink:href="#b"/><linearGradient id="h" x1="39.905" x2="157.57" y1="1360.2" y2="1360.2" gradientTransform="matrix(3.7396 0 0 .32113 -101.16 -49.498)" gradientUnits="userSpaceOnUse" xlink:href="#a"/><linearGradient id="g" x1="16.012" x2="71.824" y1="97.965" y2="97.696" gradientTransform="matrix(6.2599 0 0 8.602 -31.922 -435.54)" gradientUnits="userSpaceOnUse" xlink:href="#b"/><linearGradient id="f" x1="39.905" x2="157.57" y1="1360.2" y2="1360.2" gradientTransform="matrix(3.0962 0 0 .32297 .11234 -4.28e-6)" gradientUnits="userSpaceOnUse" xlink:href="#a"/></defs><g transform="matrix(3.7786 0 0 3.8037 .061593 -2.5619)"><rect transform="matrix(.26465 0 0 .2629 -.0163 .67352)" x="24" y="24" width="463.99" height="464" fill="url(#l)"/><g transform="matrix(.99998 0 0 .99364 .66912 1.6368)"><path d="m27.77 27.606h43.209v44.392" fill="none" stroke="#fff" stroke-linecap="round" stroke-width="6.35"/><path d="m57.109 84.451h-40.716c-0.65574 0-1.1878-0.54516-1.1878-1.217v-41.716c0-0.67186 0.53208-1.217 1.1878-1.217h40.714c0.65572 0 1.1878 0.54516 1.1878 1.217v41.715c0.0016 0.67378-0.53021 1.2189-1.1859 1.2189z" fill="url(#e)" stroke="#fff" stroke-miterlimit="1" stroke-width="6.35"/><path d="m18.381 74.542 10.955-12.548c0.35272-0.43854 1.0765-0.43666 1.4274 2e-3l4.1261 5.1213-4.9785 5.9269 0.63196 0.82062 12.737-15.23c0.35272-0.43478 1.06-0.43478 1.4127 0l10.255 12.661c0.11391 0.14116 0.17636 0.31056 0.17636 0.4856v9.4991h-36.742z" fill="#d4aa00"/><path d="m27.662 45.566c1.3024-0.0033 1.58 4.4672 2.2312 5.0414 0.65122 0.57427 5.1414-0.48495 5.3584 0.63169 0.21706 1.1166-3.4942 2.9413-3.8663 3.8346-0.37215 0.89332 1.7427 4.6745 0.96738 5.3445-0.77528 0.67001-3.7294-2.5973-4.6907-2.5973s-3.8535 3.0758-4.6288 2.5016c-0.77528-0.57427 1.1535-4.475 0.90538-5.3044-0.24808-0.82947-4.1025-2.6943-3.8663-3.779 0.23624-1.0847 4.5521-0.0255 5.2654-0.56785 0.71322-0.54242 1.239-5.0734 2.3243-5.1053" fill="#fff" fill-rule="evenodd" stroke-width="1.4203"/><path d="m40.468 14.906h43.209v44.392" fill="none" stroke="#fff" stroke-linecap="round" stroke-width="6.35"/></g><path transform="matrix(.26465 0 0 .2629 -.0163 .67352)" d="m123.72 459.39 363.26-19.026v35.875z" fill="url(#f)" stroke="url(#k)" stroke-width="2.025"/><path transform="matrix(.26465 0 0 .2629 -.0163 .67352)" d="m123.72 355.18 363.26-19.026v35.875z" fill="url(#j)" stroke="url(#i)" stroke-width="2.025"/><path transform="matrix(.26465 0 0 .2629 -.0163 .67352)" d="m48.14 407.28 438.74-18.917v35.671z" fill="url(#h)" stroke="url(#g)" stroke-width="2.2191"/><path transform="matrix(.99998 0 0 1 .00010889 0)" d="m120.98 6.9835c-0.40466 0.0053-0.80458 0.08792-1.1782 0.2434l-17.125 7.1282c-1.6189 0.67402-2.3849 2.5327-1.711 4.1517l4.162 9.9984c-3.6087 2.7304-6.8588 5.9709-9.6464 9.6785l-10.012-4.1264c-1.6212-0.66812-3.4771 0.10436-4.1455 1.7255l-7.0688 17.15c-0.66778 1.6211 0.10464 3.4766 1.7255 4.145l10.012 4.1269c-0.63443 4.595-0.61235 9.1845 0.02429 13.665l-9.9984 4.162c-1.6189 0.67402-2.3849 2.5327-1.711 4.1517l7.1288 17.125c0.67402 1.6186 2.5324 2.3846 4.1512 1.711l9.9984-4.1615c2.7304 3.6085 5.9717 6.8574 9.679 9.6449l-4.1269 10.012c-0.66812 1.6212 0.10436 3.4771 1.7255 4.1455l17.15 7.0688c1.6212 0.66813 3.4771-0.10435 4.1455-1.7255l4.1274-10.014c0.36934 0.051 0.47612 0.0661 0.84532 0.12362 2e-3 -2.9285 2e-3 -3.43 7.9e-4 -6.3857-0.69902-0.0993-1.5432-0.20739-2.2414-0.34215-1.4826-0.28613-2.9617 0.51141-3.5372 1.9074l-3.8561 9.3555-11.279-4.6488 3.8561-9.3555c0.57545-1.3962 0.088-3.0045-1.1658-3.8463-4.6707-3.1357-8.5872-7.0953-11.635-11.6-0.84617-1.2502-2.4556-1.7318-3.8494-1.1519l-9.3462 3.8902-4.6881-11.262 9.3457-3.8907c1.3939-0.58026 2.1865-2.0619 1.8955-3.5435-1.0489-5.3369-1.0988-10.906-0.03256-16.429 0.28605-1.4828-0.51173-2.9618-1.9079-3.5373l-9.3555-3.8561 4.6493-11.279 9.355 3.8561c1.3962 0.57545 3.0045 0.08796 3.8463-1.1658 3.1356-4.6709 7.0955-8.5871 11.6-11.635 1.2504-0.84623 1.7321-2.456 1.1519-3.8499l-3.8902-9.3462 11.262-4.6881 3.8902 9.3462c0.58044 1.3937 2.062 2.186 3.5434 1.895 0.71574-0.14067 1.6659-0.29431 2.3894-0.39868-5e-3 -2.9613-5e-3 -3.5952-2e-3 -6.3983-0.38184 0.08728-0.61674 0.13478-1.0136 0.19118l-4.1648-10.007c-0.49877-1.1978-1.6761-1.9716-2.9735-1.9544z" color="#000000" fill="url(#d)" filter="url(#m)" solid-color="#000000" stop-color="#000000"/><path d="m129.13 37.649c-10.356 1.609-18.483 8.1154-22.759 18.49-6.5096 15.794 1.0536 33.963 16.847 40.473 1.1614 0.47871 2.3367 0.88214 3.5197 1.2121 0.5915 0.16498 1.1849 0.31158 1.7795 0.44005 0.29729 0.06423 0.31455 0.08874 0.61234 0.14392l-2e-3 -6.5363c-1.6538-0.42472-1.666-0.43136-3.4897-1.1308h-5.3e-4c-12.621-5.202-18.598-19.561-13.396-32.182 1.7084-4.145 4.4074-7.5682 7.7085-10.115 1.6506-1.2734 3.4517-2.3278 5.3548-3.1438 0.95155-0.40798 1.9286-0.75636 2.9251-1.0427 0.24912-0.07159 0.6496-0.17966 0.90106-0.24346z" color="#000000" fill="url(#c)" solid-color="#000000" stop-color="#000000"/></g></svg>
