<?xml version="1.0" encoding="UTF-8"?>
<svg width="512" height="512" version="1.1" viewBox="0 0 135.47 135.47" xmlns="http://www.w3.org/2000/svg"><defs><radialGradient id="b" cx="66.713" cy="227.56" r="58.208" gradientTransform="matrix(.99023 -.99997 1.0049 .99506 -233.34 -98.353)" gradientUnits="userSpaceOnUse"><stop stop-color="#00f" stop-opacity=".65949" offset="0"/><stop stop-opacity=".88024" offset="1"/></radialGradient><linearGradient id="a" x1="161.01" x2="142.47" y1="110.56" y2="69.694" gradientTransform="matrix(1.614,0,0,1.6362,-169.53,-46.337)" gradientUnits="userSpaceOnUse"><stop stop-color="#f36e2e" offset="0"/><stop stop-color="#fff6f2" offset="1"/></linearGradient></defs><g transform="translate(6.35,6.35)"><rect x="3.1749" y="3.1749" width="116.42" height="116.42" fill="#fff" fill-opacity=".99977" stroke-width=".99997"/><rect x="3.1749" y="3.1749" width="116.42" height="116.42" fill="url(#b)" stroke-width=".99997"/><g transform="translate(1.4075 -1.1155)" fill="none" stroke="#80b3ff" stroke-width="6.3498"><path d="m3.1749 119.58 58.301-58.301h57.545"/><path d="m61.476 61.283v-58.112"/></g><path transform="matrix(.99998 0 0 .99998 10.746 -21.454)" d="m60.535 68.008v66.043l15.008-14.841 9.8525 18.552 9.9605-5.4232-9.7346-18.352h20.114z" fill="url(#a)" fill-rule="evenodd"/><g transform="matrix(1.3387 0 0 1.3387 2.4696 -9.4267)" fill="none" stroke="#0f0" stroke-linecap="round"><path d="m19.38 20.066h18.521v18.521h-18.521z" stop-color="#000000" stroke-width="1.9765" style="paint-order:markers fill stroke"/><g transform="matrix(-.25638 .25395 -.25638 -.25395 51.519 22.733)" stroke-width="5.4772"><path d="m57.6 11.058v41.157"/><path d="m37.022 31.637h41.157"/></g></g><g stroke="#ccc" stroke-linecap="round"><g transform="matrix(1.1114 0 0 1.1278 66.95 -9.2476)"><path d="m19.38 20.066h18.521v18.521h-18.521z" fill="none" stop-color="#000000" stroke-width="2.3633" style="paint-order:markers fill stroke"/><g transform="matrix(-.25638 .25395 -.25638 -.25395 51.519 22.733)" fill="#ccc" stroke-width="6.5491"><path d="m57.6 11.058v41.157"/><path d="m37.022 31.637h41.157"/></g></g><g transform="matrix(1.161 0 0 1.161 -10.077 31.187)"><path d="m19.38 20.066h18.521v18.521h-18.521z" fill="none" stop-color="#000000" stroke-width="2.2789" style="paint-order:markers fill stroke"/><g transform="matrix(-.25638 .25395 -.25638 -.25395 51.519 22.733)" fill="#ccc" stroke-width="6.3152"><path d="m57.6 11.058v41.157"/><path d="m37.022 31.637h41.157"/></g></g><g transform="translate(13.392 68.386)"><path d="m19.38 20.066h18.521v18.521h-18.521z" fill="none" stop-color="#000000" stroke-width="2.6458" style="paint-order:markers fill stroke"/><g transform="matrix(-.25638 .25395 -.25638 -.25395 51.519 22.733)" fill="#ccc" stroke-width="7.3321"><path d="m57.6 11.058v41.157"/><path d="m37.022 31.637h41.157"/></g></g></g><rect x="3.1749" y="3.1749" width="116.42" height="116.42" fill="none" stroke="#000" stroke-linecap="round" stroke-width="6.3498"/></g></svg>
