<?xml version="1.0" encoding="UTF-8"?>
<svg version="1.1" viewBox="0 0 512 512" xml:space="preserve" xmlns="http://www.w3.org/2000/svg" xmlns:xlink="http://www.w3.org/1999/xlink"><defs><linearGradient id="linearGradient9" x1="76.609" x2="395.57" y1="309.57" y2="308.1" gradientTransform="matrix(1.0786 0 0 1.4099 -20.116 -148.91)" gradientUnits="userSpaceOnUse"><stop stop-color="#fff" stop-opacity=".9035" offset="0"/><stop stop-color="#1c1c1c" stop-opacity=".82853" offset="1"/></linearGradient><filter id="filter9" x="-.088121" y="-.1106" width="1.1762" height="1.2212" color-interpolation-filters="sRGB"><feGaussianBlur stdDeviation="0.8722848"/></filter><filter id="filter9-6" x="-.088121" y="-.1106" width="1.1762" height="1.2212" color-interpolation-filters="sRGB"><feGaussianBlur stdDeviation="0.8722848"/></filter><filter id="filter9-1" x="-.088121" y="-.1106" width="1.1762" height="1.2212" color-interpolation-filters="sRGB"><feGaussianBlur stdDeviation="0.8722848"/></filter><filter id="filter9-9" x="-.088121" y="-.1106" width="1.1762" height="1.2212" color-interpolation-filters="sRGB"><feGaussianBlur stdDeviation="0.8722848"/></filter><filter id="filter9-0" x="-.088121" y="-.1106" width="1.1762" height="1.2212" color-interpolation-filters="sRGB"><feGaussianBlur stdDeviation="0.8722848"/></filter><filter id="filter9-61" x="-.088121" y="-.1106" width="1.1762" height="1.2212" color-interpolation-filters="sRGB"><feGaussianBlur stdDeviation="0.8722848"/></filter><filter id="filter9-92" x="-.088121" y="-.1106" width="1.1762" height="1.2212" color-interpolation-filters="sRGB"><feGaussianBlur stdDeviation="0.8722848"/></filter><filter id="filter9-7" x="-.088121" y="-.1106" width="1.1762" height="1.2212" color-interpolation-filters="sRGB"><feGaussianBlur stdDeviation="0.8722848"/></filter><filter id="filter9-2" x="-.088121" y="-.1106" width="1.1762" height="1.2212" color-interpolation-filters="sRGB"><feGaussianBlur stdDeviation="0.8722848"/></filter><filter id="filter9-6-1" x="-.088121" y="-.1106" width="1.1762" height="1.2212" color-interpolation-filters="sRGB"><feGaussianBlur stdDeviation="0.8722848"/></filter></defs><path d="m24 24h464v464h-464z" stroke-width="0"/><g transform="translate(0 5.1346)"><g fill="#0f0" stroke="#0f0"><g stroke-width="18.58"><path d="m222.17 125.25 27.643-52.199 28.707 52.199z"/><path d="m396.29 438.95 27.643-52.199 28.707 52.199z"/><path d="m58.445 433.74 27.643-52.199 28.707 52.199z"/></g><path d="m434.79 414.73-175.14-90.401v-233.38h-17.552v233.36l-164.87 84.505c-4.3148 2.211-6.0407 7.5322-3.8467 11.895 1.5504 3.066 4.6366 4.8347 7.8251 4.8347 1.3456 0 2.6912-0.30952 3.9784-0.95812l165.67-84.918 175.91 90.799c1.287 0.66331 2.6474 0.97284 3.993 0.97284 3.1886 0 6.2601-1.754 7.8105-4.82 2.2232-4.3336 0.51198-9.6695-3.7882-11.895z" stroke-linecap="square" stroke-width="14.555"/></g><g><path d="m255.89 184.86 212.29 99.21-217.95 147.91-206.4-147.91z" fill="url(#linearGradient9)" stroke="#fff" stroke-linecap="round" stroke-linejoin="round" stroke-width="7"/><path d="m145.12 295.51a11.878 9.464 0 0 1-11.878 9.464 11.878 9.464 0 0 1-11.878-9.464 11.878 9.464 0 0 1 11.878-9.464 11.878 9.464 0 0 1 11.878 9.464z" fill="#e3e3e3" filter="url(#filter9)" style="paint-order:stroke fill markers"/><path transform="matrix(1.4026 0 0 1.4026 -122.05 -115.65)" d="m328.98 275.7a11.878 9.464 0 0 1-11.878 9.464 11.878 9.464 0 0 1-11.878-9.464 11.878 9.464 0 0 1 11.878-9.464 11.878 9.464 0 0 1 11.878 9.464z" fill="#e6e6e6" filter="url(#filter9-6)" style="paint-order:stroke fill markers"/></g><path transform="matrix(1.462 0 0 1.6062 -179.44 -75.935)" d="m328.98 275.7a11.878 9.464 0 0 1-11.878 9.464 11.878 9.464 0 0 1-11.878-9.464 11.878 9.464 0 0 1 11.878-9.464 11.878 9.464 0 0 1 11.878 9.464z" fill="#d5d5d5" filter="url(#filter9-6-1)" style="paint-order:stroke fill markers"/><path transform="matrix(.77429 0 0 .5942 58.058 122.22)" d="m325.92 323.03a11.878 9.464 0 0 1-11.878 9.464 11.878 9.464 0 0 1-11.878-9.464 11.878 9.464 0 0 1 11.878-9.464 11.878 9.464 0 0 1 11.878 9.464z" fill="#d5d5d5" filter="url(#filter9-1)" style="paint-order:stroke fill markers"/><path transform="matrix(.93145 0 0 .83067 3.893 101.09)" d="m265.63 351.86a11.878 9.464 0 0 1-11.878 9.464 11.878 9.464 0 0 1-11.878-9.464 11.878 9.464 0 0 1 11.878-9.464 11.878 9.464 0 0 1 11.878 9.464z" fill="#e5e5e5" filter="url(#filter9-9)" style="paint-order:stroke fill markers"/><path d="m393.44 296.71a11.878 9.464 0 0 1-11.878 9.464 11.878 9.464 0 0 1-11.878-9.464 11.878 9.464 0 0 1 11.878-9.464 11.878 9.464 0 0 1 11.878 9.464z" fill="#e4e4e4" filter="url(#filter9-0)" style="paint-order:stroke fill markers"/><g fill="#d5d5d5"><path transform="matrix(1.3951 0 0 1.1906 -106.84 -42.249)" d="m216.79 253.97a11.878 9.464 0 0 1-11.878 9.464 11.878 9.464 0 0 1-11.878-9.464 11.878 9.464 0 0 1 11.878-9.464 11.878 9.464 0 0 1 11.878 9.464z" filter="url(#filter9-61)" style="paint-order:stroke fill markers"/><path d="m239.87 296.96a11.878 9.464 0 0 1-11.878 9.464 11.878 9.464 0 0 1-11.878-9.464 11.878 9.464 0 0 1 11.878-9.464 11.878 9.464 0 0 1 11.878 9.464z" filter="url(#filter9-92)" style="paint-order:stroke fill markers"/><path transform="matrix(.78769 0 0 .61227 54.541 88.873)" d="m282.75 240.77a11.878 9.464 0 0 1-11.878 9.464 11.878 9.464 0 0 1-11.878-9.464 11.878 9.464 0 0 1 11.878-9.464 11.878 9.464 0 0 1 11.878 9.464z" filter="url(#filter9-7)" style="paint-order:stroke fill markers"/><path transform="matrix(.53927 0 0 .58972 56.242 129.1)" d="m209.02 345.97a11.878 9.464 0 0 1-11.878 9.464 11.878 9.464 0 0 1-11.878-9.464 11.878 9.464 0 0 1 11.878-9.464 11.878 9.464 0 0 1 11.878 9.464z" filter="url(#filter9-2)" style="paint-order:stroke fill markers"/></g><path d="m121.62 293.64 11.767-22.25 11.248 24.06z" fill="none"/></g></svg>
