<?xml version="1.0" encoding="UTF-8"?>
<svg width="512" height="512" version="1.1" viewBox="0 0 135.47 135.47" xmlns="http://www.w3.org/2000/svg"><defs><linearGradient id="a" x1="257" x2="256.85" y1="-96.577" y2="-70.053" gradientTransform="matrix(2.0388 0 0 3.2038 -456.12 347.96)" gradientUnits="userSpaceOnUse"><stop stop-color="#08044d" offset="0"/><stop stop-color="#4d4cd2" offset="1"/></linearGradient></defs><rect x="8.3565" y="8.955" width="118.67" height="118.67" fill="url(#a)" stroke="#000" stroke-linejoin="round" stroke-width="4.0922" style="paint-order:fill markers stroke"/><path d="m71.822 29.607c-1.804 7.9004-4.0435 13.935-7.3405 13.935-4.4168 0-5.9097-7.776-5.9097-11.819 0-5.9097 1.5552-14.37 5.3499-14.37 3.9813 0 6.0964 5.8475 7.9004 12.255zm10.638 8.087h-1.1819c-0.37325 2.5505-1.0575 3.7325-2.7994 3.7325-1.3064 0-1.8662-2.3017-2.8616-5.5365 0.49767-1.3064 0.87091-2.6749 1.182-4.2923l2.986-14.992h-5.3499l-1.804 9.3312c-1.5552-5.2877-3.6702-10.326-8.7091-10.326-5.9719 0-10.949 6.4074-10.949 15.739 0 7.4649 3.5458 13.935 11.819 13.935 2.986 0 6.6562-1.4308 9.3312-6.0964 0.43545 2.986 1.182 6.0964 3.9813 6.0964 3.4214 0 4.6034-4.4168 4.3545-7.5893z" fill="#69efff" stroke="#69efff" stroke-width="1.5875"/><path d="m119.86 75.665c0-5.6609-4.1679-10.389-9.58-14.619l-7.2783-5.6609c-0.8087-0.62208-3.2348-2.4261-3.2348-3.7947 0-1.1819 0.62208-3.0482 3.4214-3.0482 3.1726 0 5.0388 1.7418 6.0342 3.4214 0.87091 1.493 2.1773 2.8616 3.9191 2.8616 1.2442 0 2.7371-0.87091 2.7371-2.4261 0-3.4836-3.9813-6.0342-10.202-6.0342-5.101 0-8.8957 3.1104-8.8957 6.7184 0 2.2395 0.74649 4.79 2.9238 6.4074l5.4743 4.0435c-6.0342 0-12.815 4.8522-12.815 12.379 0 8.2736 5.9097 13.188 13.437 13.188 8.1492 0 14.059-4.9144 14.059-13.437zm-5.5987 0.62208c0 6.0964-2.4261 11.073-8.1492 11.073-4.479 0-8.1492-5.8475-8.1492-10.638 0-6.4074 3.7325-11.508 9.4556-11.508 1.0575 0.68428 6.8428 6.1586 6.8428 11.073z" fill="#69efff" stroke="#69efff" stroke-width="1.5875"/><path d="m60.385 50.774 5.2116 19.018 19.156-0.88852-15.941 10.957 6.7652 18.493-15.064-12.246-14.975 12.318 6.6314-18.526-16.02-10.881 19.162 0.79638z" fill="#ff9e3f" fill-rule="evenodd" stroke-width="2.1789" style="paint-order:fill markers stroke"/><g transform="matrix(3.096 0 0 3.094 15.241 21.153)" fill="#69efff" stroke="#69efff" stroke-width="1.3678"><path d="m28 29h-24.4c-0.331 0-0.6-0.269-0.6-0.6v-23.4h1.2v22.8h23.8z"/><polygon points="3.6 1.1 6.3 6 1 6"/><polygon points="30.9 28.3 26 31 26 25.7"/></g></svg>
