<?xml version="1.0" encoding="UTF-8"?>
<svg version="1.1" viewBox="0 0 512 512" xml:space="preserve" xmlns="http://www.w3.org/2000/svg" xmlns:xlink="http://www.w3.org/1999/xlink"><defs><linearGradient id="k" x1="201.96" x2="326.02" y1="141.5" y2="252.84" gradientTransform="matrix(1.3713 0 0 1.2102 -120.96 -109.16)" gradientUnits="userSpaceOnUse"><stop stop-color="#fff" stop-opacity="0" offset="0"/><stop stop-color="#bde1c5" offset="1"/></linearGradient><linearGradient id="i" x1="197.96" x2="194.45" y1="586.1" y2="810.3" gradientTransform="matrix(.45407 -.15716 .15716 .45407 -65.937 -153.6)" gradientUnits="userSpaceOnUse"><stop stop-color="#2f0057" offset=".068553"/><stop stop-color="#001ef0" offset="1"/></linearGradient><linearGradient id="j" x1="197.96" x2="194.45" y1="586.1" y2="810.3" gradientTransform="matrix(.45407 -.15716 .15716 .45407 -65.937 -153.6)" gradientUnits="userSpaceOnUse"><stop stop-color="#42007c" offset=".37733"/><stop stop-color="#3951ff" stop-opacity=".28801" offset="1"/></linearGradient><linearGradient id="h" x1="271.78" x2="194.45" y1="616.44" y2="810.3" gradientTransform="matrix(.45407 -.15716 .15716 .45407 -65.937 -153.6)" gradientUnits="userSpaceOnUse"><stop stop-color="#e26d00" stop-opacity=".72011" offset="0"/><stop stop-color="#fff" stop-opacity=".30542" offset=".9999"/></linearGradient><linearGradient id="b" x1="75.711" x2="318.13" y1="804.16" y2="564.78" gradientTransform="matrix(.45407 -.15716 .15716 .45407 -65.937 -153.6)" gradientUnits="userSpaceOnUse"><stop stop-color="#49a849" stop-opacity=".9035" offset="0"/><stop stop-color="#565656" stop-opacity=".50198" offset=".43765"/><stop stop-color="#4242ba" stop-opacity=".75686" offset=".63872"/><stop stop-color="#151515" stop-opacity=".30943" offset="1"/></linearGradient><linearGradient id="g" x1="433.07" x2="-30.934" y1="-631.99" y2="-167.99" gradientTransform="translate(54.934,655.99)" gradientUnits="userSpaceOnUse"><stop stop-color="#bc6c22" stop-opacity=".72011" offset=".00026152"/><stop stop-color="#fefefe" stop-opacity=".53429" offset=".9999"/></linearGradient><linearGradient id="d" x1="251.43" x2="248.03" y1="24" y2="488.21" gradientUnits="userSpaceOnUse"><stop stop-color="#2e2235" offset=".068799"/><stop stop-color="#575862" offset="1"/></linearGradient><linearGradient id="l" x1="788.39" x2="789.74" y1="-151" y2="313" gradientTransform="translate(-536,175)" gradientUnits="userSpaceOnUse"><stop stop-color="#506750" stop-opacity=".9035" offset="0"/><stop stop-color="#565656" stop-opacity=".50198" offset=".43765"/><stop stop-color="#5a5a74" stop-opacity=".75686" offset=".63957"/><stop stop-color="#9d3939" stop-opacity=".30943" offset="1"/></linearGradient><linearGradient id="f" x1="161.09" x2="444.53" y1="125.82" y2="125.82" gradientUnits="userSpaceOnUse" xlink:href="#k"/><linearGradient id="e" x1="161.09" x2="444.53" y1="125.82" y2="125.82" gradientTransform="translate(-78.879,89.583)" gradientUnits="userSpaceOnUse" xlink:href="#k"/><linearGradient id="c" x1="161.09" x2="444.53" y1="125.82" y2="125.82" gradientTransform="translate(-133.13,34.49)" gradientUnits="userSpaceOnUse" xlink:href="#k"/><linearGradient id="a" x1="161.09" x2="444.53" y1="125.82" y2="125.82" gradientTransform="translate(-126.38,-16.949)" gradientUnits="userSpaceOnUse" xlink:href="#k"/></defs><path d="m211.8 174.57 234.96 272.43" fill="none" stroke-width="0"/><g transform="matrix(.96552 0 0 .96552 8.8276 8.8276)" stroke="#000" stroke-linecap="round" stroke-linejoin="round"><path d="m24 24h464v464h-464z" fill="url(#d)" stroke-width="14.075"/><path d="m24 24h464v464h-464z" fill="url(#g)" stroke-width="14.075"/><path d="m24 24h464v464h-464z" fill="url(#l)" stroke-width="16.572"/></g><g transform="matrix(.99465 0 0 .99465 8.3324 8.3324)" fill="none" stroke-linecap="round" stroke-linejoin="bevel" stroke-width="15.619"><path d="m39.425 79.338 155.72 135.03" stroke="url(#a)"/><path d="m79.137 194.07 116.01 262.1" stroke="url(#c)"/><path d="m193.87 154.36 262.5 301.81" stroke="url(#e)"/><path d="m154.16 39.626 302.21 174.74" stroke="url(#f)"/></g><g transform="matrix(.99465 0 0 .99465 8.3324 8.3324)" stroke-linecap="square" stroke-width="1.0054"><g transform="matrix(.97071 0 0 .97071 -9.6892 -7.1799)"><path d="m81.213 290.81a5 5 0 0 1-5 5 5 5 0 0 1-5-5 5 5 0 0 1 5-5 5 5 0 0 1 5 5z" fill="#e3e3e3" stroke-width=".30364" style="paint-order:stroke fill markers"/><path d="m72.719 356.49a7.5 7.5 0 0 1-7.5 7.5 7.5 7.5 0 0 1-7.5-7.5 7.5 7.5 0 0 1 7.5-7.5 7.5 7.5 0 0 1 7.5 7.5z" fill="#fee77a" stroke-width=".45545" style="paint-order:stroke fill markers"/><path d="m174.87 321.1a5 5 0 0 1-5 5 5 5 0 0 1-5-5 5 5 0 0 1 5-5 5 5 0 0 1 5 5z" fill="#e3e3e3" stroke-width=".30364" style="paint-order:stroke fill markers"/><path d="m167.13 441.22a5 5 0 0 1-5 5 5 5 0 0 1-5-5 5 5 0 0 1 5-5 5 5 0 0 1 5 5z" fill="#e3e3e3" stroke-width=".30364" style="paint-order:stroke fill markers"/></g><g transform="matrix(.97071 0 0 .97071 -1.8476 -4.0055)" fill="#e3e3e3" stroke-width=".45545"><path d="m458.7 80.968a7.5 7.5 0 0 1-7.5 7.5 7.5 7.5 0 0 1-7.5-7.5 7.5 7.5 0 0 1 7.5-7.5 7.5 7.5 0 0 1 7.5 7.5z" style="paint-order:stroke fill markers"/><path d="m155.79 240.82a7.5 7.5 0 0 1-7.5 7.5 7.5 7.5 0 0 1-7.5-7.5 7.5 7.5 0 0 1 7.5-7.5 7.5 7.5 0 0 1 7.5 7.5z" style="paint-order:stroke fill markers"/><path d="m77.796 452.12a7.5 7.5 0 0 1-7.5 7.5 7.5 7.5 0 0 1-7.5-7.5 7.5 7.5 0 0 1 7.5-7.5 7.5 7.5 0 0 1 7.5 7.5z" style="paint-order:stroke fill markers"/></g><path d="m369.48 96.017a7.2803 7.2803 0 0 1-7.2803 7.2803 7.2803 7.2803 0 0 1-7.2803-7.2803 7.2803 7.2803 0 0 1 7.2803-7.2803 7.2803 7.2803 0 0 1 7.2803 7.2803z" fill="#fee77a" stroke-width=".44211" style="paint-order:stroke fill markers"/><g transform="matrix(.97071 0 0 .97071 .49791 .49791)" fill="#e3e3e3" stroke-width=".30364"><path d="m242.72 139.6a5 5 0 0 1-5 5 5 5 0 0 1-5-5 5 5 0 0 1 5-5 5 5 0 0 1 5 5z" style="paint-order:stroke fill markers"/><path d="m465.74 168.88a5 5 0 0 1-5 5 5 5 0 0 1-5-5 5 5 0 0 1 5-5 5 5 0 0 1 5 5z" style="paint-order:stroke fill markers"/><path d="m116.58 394.96a5 5 0 0 1-5 5 5 5 0 0 1-5-5 5 5 0 0 1 5-5 5 5 0 0 1 5 5z" style="paint-order:stroke fill markers"/><path d="m285.07 59.957a5 5 0 0 1-5 5 5 5 0 0 1-5-5 5 5 0 0 1 5-5 5 5 0 0 1 5 5z" style="paint-order:stroke fill markers"/><path d="m71.196 52.076a5 5 0 0 1-5 5 5 5 0 0 1-5-5 5 5 0 0 1 5-5 5 5 0 0 1 5 5z" style="paint-order:stroke fill markers"/></g><path d="m311.07 164.69a7.2803 7.2803 0 0 1-7.2803 7.2803 7.2803 7.2803 0 0 1-7.2803-7.2803 7.2803 7.2803 0 0 1 7.2803-7.2803 7.2803 7.2803 0 0 1 7.2803 7.2803z" fill="#e3e3e3" stroke-width=".44211" style="paint-order:stroke fill markers"/></g><g transform="translate(-4.1305 -3.8424)"><path d="m51.677 91.088 114.12-39.5 39.5 114.12-114.12 39.5z" fill="url(#i)" opacity=".88112" stroke="#bde0c5" stroke-linecap="round" stroke-linejoin="round" stroke-width="14.493" style="paint-order:stroke fill markers"/><g stroke-width=".97071"><path d="m51.677 91.088 114.12-39.5 39.5 114.12-114.12 39.5z" fill="url(#j)" opacity=".88112" style="paint-order:stroke fill markers"/><path d="m51.677 91.088 114.12-39.5 39.5 114.12-114.12 39.5z" fill="url(#h)" opacity=".88112" style="paint-order:stroke fill markers"/><path d="m51.677 91.088 114.12-39.5 39.5 114.12-114.12 39.5z" fill="url(#b)" opacity=".88112" style="paint-order:stroke fill markers"/></g><g transform="matrix(.9124 -.31582 .31582 .9124 -26.887 55.238)" fill="#fafaff" stroke-width="1.0162"><path transform="matrix(.29811 .31755 -.31755 .29811 109.64 65.099)" d="m136.29 190.47a17.616 17.616 0 0 1-17.616 17.616 17.616 17.616 0 0 1-17.616-17.616 17.616 17.616 0 0 1 17.616-17.616 17.616 17.616 0 0 1 17.616 17.616z" opacity=".9175" style="mix-blend-mode:normal;paint-order:stroke fill markers"/><path transform="matrix(.29811 .31755 -.31755 .29811 186.77 69.817)" d="m136.29 190.47a17.616 17.616 0 0 1-17.616 17.616 17.616 17.616 0 0 1-17.616-17.616 17.616 17.616 0 0 1 17.616-17.616 17.616 17.616 0 0 1 17.616 17.616z" opacity=".9175" style="mix-blend-mode:normal;paint-order:stroke fill markers"/><path transform="matrix(.33175 .35338 -.35338 .33175 186.56 -18.2)" d="m136.29 190.47a17.616 17.616 0 0 1-17.616 17.616 17.616 17.616 0 0 1-17.616-17.616 17.616 17.616 0 0 1 17.616-17.616 17.616 17.616 0 0 1 17.616 17.616z" opacity=".9175" style="mix-blend-mode:normal;paint-order:stroke fill markers"/><path transform="matrix(.45662 .4864 -.4864 .45662 108.18 23.692)" d="m100.68 97.068a17.616 17.616 0 0 1-17.616 17.616 17.616 17.616 0 0 1-17.616-17.616 17.616 17.616 0 0 1 17.616-17.616 17.616 17.616 0 0 1 17.616 17.616z" opacity=".9175" style="mix-blend-mode:normal;paint-order:stroke fill markers"/><path transform="matrix(-.22086 .20734 -.20734 -.22086 193.81 171.27)" d="m136.29 190.47a17.616 17.616 0 0 1-17.616 17.616 17.616 17.616 0 0 1-17.616-17.616 17.616 17.616 0 0 1 17.616-17.616 17.616 17.616 0 0 1 17.616 17.616z" opacity=".9175" style="mix-blend-mode:normal;paint-order:stroke fill markers"/></g><g transform="matrix(.9124 -.31582 .31582 .9124 -26.887 55.238)" fill="none" stroke="#fff" stroke-linecap="round"><path d="m151.49 104.39-34.349 32.246" stroke-width="2.5134"/><path d="m145.89 132.57-22.748-24.232" stroke-width="2.1111"/><path d="m133.86 134.87 1.2962-28.829" stroke-width="1.833"/><path d="m120.1 119.8 28.829 1.2963" stroke-width="1.833"/></g><path transform="matrix(-1.1368 .078203 -.078203 -1.1368 235.9 226.51)" d="m100.68 97.068a17.616 17.616 0 0 1-17.616 17.616 17.616 17.616 0 0 1-17.616-17.616 17.616 17.616 0 0 1 17.616-17.616 17.616 17.616 0 0 1 17.616 17.616z" fill="#adadff" fill-opacity=".54104" opacity=".9175" stroke-width="1.0108" style="paint-order:stroke fill markers"/><path d="m140 125.87a6.9072 6.9072 0 0 1-9.327 2.9023 6.9072 6.9072 0 0 1-2.9023-9.327 6.9072 6.9072 0 0 1 9.327-2.9023 6.9072 6.9072 0 0 1 2.9023 9.327z" fill="#fee77a" stroke-linecap="square" stroke-width=".41944" style="paint-order:stroke fill markers"/><path d="m57.148 187.89a6.7586 6.7586 0 0 1-6.7586 6.7586 6.7586 6.7586 0 0 1-6.7586-6.7586 6.7586 6.7586 0 0 1 6.7586-6.7586 6.7586 6.7586 0 0 1 6.7586 6.7586z" fill="#e3e3e3" stroke-linecap="square" stroke-width=".41042" style="paint-order:stroke fill markers"/></g><g transform="matrix(.99465 0 0 .99465 19.34 21.508)" stroke-width="1.0054"><path d="m184.08 201.12h261.22v241.8h-261.22z" fill="#fff" fill-opacity=".77052" opacity=".88112" stroke-width=".97593" style="paint-order:stroke fill markers"/><path d="m188.75 205.44h251.88v233.16h-251.88z" fill="#282828" stroke="#bde0c5" stroke-linecap="round" stroke-linejoin="round" stroke-width="29.084" style="paint-order:stroke fill markers"/><g transform="matrix(.97071 0 0 .97071 7.2549 12.198)"><g transform="rotate(46.808,659.37,833.25)" stroke-width="1.0054"><g fill="#fafaff" stroke-width="1.0162"><path transform="matrix(.8711 0 0 .8711 -52.243 670.36)" d="m136.29 190.47a17.616 17.616 0 0 1-17.616 17.616 17.616 17.616 0 0 1-17.616-17.616 17.616 17.616 0 0 1 17.616-17.616 17.616 17.616 0 0 1 17.616 17.616z" opacity=".9175" style="mix-blend-mode:normal;paint-order:stroke fill markers"/><path transform="matrix(.9694 0 0 .9694 -68.415 444.18)" d="m136.29 190.47a17.616 17.616 0 0 1-17.616 17.616 17.616 17.616 0 0 1-17.616-17.616 17.616 17.616 0 0 1 17.616-17.616 17.616 17.616 0 0 1 17.616 17.616z" opacity=".9175" style="mix-blend-mode:normal;paint-order:stroke fill markers"/><path transform="matrix(1.3343,0,0,1.3343,-114.61,615.81)" d="m100.68 97.068a17.616 17.616 0 0 1-17.616 17.616 17.616 17.616 0 0 1-17.616-17.616 17.616 17.616 0 0 1 17.616-17.616 17.616 17.616 0 0 1 17.616 17.616z" opacity=".9175" style="mix-blend-mode:normal;paint-order:stroke fill markers"/><path transform="matrix(0 .60588 -.60588 0 217.79 692.98)" d="m136.29 190.47a17.616 17.616 0 0 1-17.616 17.616 17.616 17.616 0 0 1-17.616-17.616 17.616 17.616 0 0 1 17.616-17.616 17.616 17.616 0 0 1 17.616 17.616z" opacity=".9175" style="mix-blend-mode:normal;paint-order:stroke fill markers"/></g><g fill="none" stroke="#fff" stroke-linecap="round"><path d="m69.568 659.52v94.227" stroke-width="5.0269"/><path d="m116.26 706.26h-93.024" stroke-width="5.9086"/><path d="m89.875 726.93-40.262-41.354" stroke-width="3.666"/><path d="m49.067 726.39 41.354-40.262" stroke-width="3.666"/></g><path d="m84.052 706.26a14.308 14.308 0 0 1-14.308 14.308 14.308 14.308 0 0 1-14.308-14.308 14.308 14.308 0 0 1 14.308-14.308 14.308 14.308 0 0 1 14.308 14.308z" fill="#fee77a" stroke-linecap="square" stroke-width=".86886" style="paint-order:stroke fill markers"/></g><path transform="matrix(.58873 .62711 -.62711 .58873 442.45 209.04)" d="m136.29 190.47a17.616 17.616 0 0 1-17.616 17.616 17.616 17.616 0 0 1-17.616-17.616 17.616 17.616 0 0 1 17.616-17.616 17.616 17.616 0 0 1 17.616 17.616z" fill="#fafaff" opacity=".9175" stroke-width="1.0108" style="mix-blend-mode:normal;paint-order:stroke fill markers"/></g></g></svg>
