<svg viewBox="0 0 640 300" role="img" aria-label="Tracking component" xmlns="http://www.w3.org/2000/svg" font-family="Segoe UI, Helvetica Neue, Arial, sans-serif"><defs>
  <radialGradient id="TrackingcompSTAR" cx="50%" cy="50%" r="50%">
    <stop offset="0%" stop-color="#ffffff"/>
    <stop offset="35%" stop-color="#fff1d6" stop-opacity="0.95"/>
    <stop offset="100%" stop-color="#ffd9a0" stop-opacity="0"/>
  </radialGradient>
  <marker id="TrackingcompARR" viewBox="0 0 10 10" refX="9" refY="5" markerWidth="7" markerHeight="7" orient="auto-start-reverse">
    <path d="M0,0 L10,5 L0,10 z" fill="#a8b6c8"/></marker>
  <marker id="TrackingcompARRB" viewBox="0 0 10 10" refX="9" refY="5" markerWidth="7" markerHeight="7" orient="auto-start-reverse">
    <path d="M0,0 L10,5 L0,10 z" fill="#64c7ff"/></marker>
  <marker id="TrackingcompARRO" viewBox="0 0 10 10" refX="9" refY="5" markerWidth="7" markerHeight="7" orient="auto-start-reverse">
    <path d="M0,0 L10,5 L0,10 z" fill="#ffab5e"/></marker>
  <marker id="TrackingcompARRG" viewBox="0 0 10 10" refX="9" refY="5" markerWidth="7" markerHeight="7" orient="auto-start-reverse">
    <path d="M0,0 L10,5 L0,10 z" fill="#82e0aa"/></marker>
</defs><rect width="640" height="300" rx="10" fill="#0c141d"/><text x="160.0" y="28.0" font-size="14" fill="#e7edf5" text-anchor="middle" font-weight="bold">every star shares one elongation</text><ellipse cx="91.9" cy="169.7" rx="12.7" ry="7.4" fill="url(#TrackingcompSTAR)" transform="rotate(-25.0 91.9 169.7)"/><ellipse cx="187.0" cy="187.7" rx="9.9" ry="5.8" fill="url(#TrackingcompSTAR)" transform="rotate(-25.0 187.0 187.7)"/><ellipse cx="33.4" cy="234.2" rx="11.7" ry="6.8" fill="url(#TrackingcompSTAR)" transform="rotate(-25.0 33.4 234.2)"/><ellipse cx="90.9" cy="269.0" rx="13.7" ry="7.9" fill="url(#TrackingcompSTAR)" transform="rotate(-25.0 90.9 269.0)"/><ellipse cx="247.5" cy="154.8" rx="15.2" ry="8.9" fill="url(#TrackingcompSTAR)" transform="rotate(-25.0 247.5 154.8)"/><ellipse cx="69.2" cy="189.7" rx="17.4" ry="10.1" fill="url(#TrackingcompSTAR)" transform="rotate(-25.0 69.2 189.7)"/><ellipse cx="166.0" cy="213.1" rx="15.5" ry="9.0" fill="url(#TrackingcompSTAR)" transform="rotate(-25.0 166.0 213.1)"/><ellipse cx="46.6" cy="216.8" rx="14.8" ry="8.6" fill="url(#TrackingcompSTAR)" transform="rotate(-25.0 46.6 216.8)"/><ellipse cx="108.3" cy="56.8" rx="17.3" ry="10.1" fill="url(#TrackingcompSTAR)" transform="rotate(-25.0 108.3 56.8)"/><ellipse cx="152.9" cy="208.1" rx="17.5" ry="10.1" fill="url(#TrackingcompSTAR)" transform="rotate(-25.0 152.9 208.1)"/><ellipse cx="215.7" cy="252.6" rx="13.0" ry="7.5" fill="url(#TrackingcompSTAR)" transform="rotate(-25.0 215.7 252.6)"/><ellipse cx="238.2" cy="147.8" rx="18.0" ry="10.5" fill="url(#TrackingcompSTAR)" transform="rotate(-25.0 238.2 147.8)"/><ellipse cx="258.5" cy="71.4" rx="10.6" ry="6.1" fill="url(#TrackingcompSTAR)" transform="rotate(-25.0 258.5 71.4)"/><ellipse cx="86.4" cy="262.4" rx="13.4" ry="7.8" fill="url(#TrackingcompSTAR)" transform="rotate(-25.0 86.4 262.4)"/><ellipse cx="192.9" cy="116.2" rx="14.0" ry="8.1" fill="url(#TrackingcompSTAR)" transform="rotate(-25.0 192.9 116.2)"/><ellipse cx="130.3" cy="127.2" rx="14.7" ry="8.6" fill="url(#TrackingcompSTAR)" transform="rotate(-25.0 130.3 127.2)"/><ellipse cx="181.9" cy="248.9" rx="15.6" ry="9.1" fill="url(#TrackingcompSTAR)" transform="rotate(-25.0 181.9 248.9)"/><ellipse cx="271.5" cy="238.4" rx="18.5" ry="10.8" fill="url(#TrackingcompSTAR)" transform="rotate(-25.0 271.5 238.4)"/><ellipse cx="204.5" cy="85.9" rx="17.3" ry="10.0" fill="url(#TrackingcompSTAR)" transform="rotate(-25.0 204.5 85.9)"/><ellipse cx="280.8" cy="249.0" rx="14.6" ry="8.5" fill="url(#TrackingcompSTAR)" transform="rotate(-25.0 280.8 249.0)"/><ellipse cx="215.6" cy="96.4" rx="17.0" ry="9.9" fill="url(#TrackingcompSTAR)" transform="rotate(-25.0 215.6 96.4)"/><ellipse cx="179.1" cy="112.7" rx="9.9" ry="5.7" fill="url(#TrackingcompSTAR)" transform="rotate(-25.0 179.1 112.7)"/><ellipse cx="252.0" cy="267.8" rx="10.1" ry="5.9" fill="url(#TrackingcompSTAR)" transform="rotate(-25.0 252.0 267.8)"/><ellipse cx="238.2" cy="140.3" rx="10.7" ry="6.2" fill="url(#TrackingcompSTAR)" transform="rotate(-25.0 238.2 140.3)"/><ellipse cx="106.4" cy="219.1" rx="17.4" ry="10.1" fill="url(#TrackingcompSTAR)" transform="rotate(-25.0 106.4 219.1)"/><ellipse cx="41.5" cy="185.2" rx="9.7" ry="5.6" fill="url(#TrackingcompSTAR)" transform="rotate(-25.0 41.5 185.2)"/><text x="470.0" y="28.0" font-size="14" fill="#e7edf5" text-anchor="middle" font-weight="bold">subtraction in the (χ₁, χ₂) plane</text><line x1="330.0" y1="170.0" x2="620.0" y2="170.0" stroke="#a8b6c8" stroke-width="1.2" marker-end="url(#TrackingcompARR)"/><text x="622.0" y="188.0" font-size="14" fill="#a8b6c8" text-anchor="end" font-weight="normal">χ₁</text><line x1="470.0" y1="280.0" x2="470.0" y2="50.0" stroke="#a8b6c8" stroke-width="1.2" marker-end="url(#TrackingcompARR)"/><text x="478.0" y="60.0" font-size="14" fill="#a8b6c8" text-anchor="start" font-weight="normal">χ₂</text><line x1="470.0" y1="170.0" x2="580.0" y2="80.0" stroke="#64c7ff" stroke-width="2.5" marker-end="url(#TrackingcompARRB)"/><text x="586.0" y="74.0" font-size="14" fill="#64c7ff" text-anchor="start" font-weight="normal">star</text><line x1="470.0" y1="170.0" x2="540.0" y2="130.0" stroke="#ffab5e" stroke-width="2.5" marker-end="url(#TrackingcompARRO)"/><text x="550.0" y="156.0" font-size="13" fill="#ffab5e" text-anchor="middle" font-weight="normal">tracking (median)</text><line x1="540.0" y1="130.0" x2="580.0" y2="80.0" stroke="#82e0aa" stroke-width="2.5" stroke-dasharray="6 4" marker-end="url(#TrackingcompARRG)"/><text x="460.0" y="230.0" font-size="13" fill="#82e0aa" text-anchor="end" font-weight="normal">star − tracking =</text><text x="460.0" y="248.0" font-size="13" fill="#82e0aa" text-anchor="end" font-weight="normal">what the optics did</text></svg>
